<svg width="18" height="18" viewBox="0 0 18 18" fill="none" xmlns="http://www.w3.org/2000/svg">
<path d="M9.00195 0.25H16.002C16.9639 0.25 17.752 1.03807 17.752 2V9L17.7422 9.43066C17.694 10.4326 17.4723 11.4202 17.0869 12.3486C16.7015 13.277 16.1589 14.1306 15.4834 14.8721L15.1855 15.1826L15.1846 15.1836C13.4836 16.8942 11.2385 17.75 9.00195 17.75L8.62988 17.7422C6.77508 17.6633 4.99037 16.9932 3.53906 15.8252L3.36426 15.6846L3.20508 15.8428L1.52539 17.5234C1.38531 17.6635 1.19516 17.7422 0.99707 17.7422L0.850586 17.7275C0.70704 17.6988 0.573803 17.6285 0.46875 17.5234C0.328684 17.3834 0.250031 17.1932 0.25 16.9951C0.25 16.8463 0.294508 16.702 0.375977 16.5801L0.46875 16.4668L2.30664 14.6289L2.16699 14.4541C0.97082 12.9564 0.251953 11.0607 0.251953 9C0.251953 4.00421 4.33386 0.250036 9.00195 0.25ZM11.0586 3.94336C10.8463 3.73112 10.5106 3.69029 10.2549 3.84766L10.1553 3.92383L4.99512 8.55371L4.99316 8.55566C4.88446 8.65569 4.80621 8.78561 4.76953 8.92871C4.73293 9.07173 4.73898 9.22241 4.78613 9.3623C4.83332 9.50226 4.92034 9.62512 5.03613 9.7168C5.15163 9.80823 5.29088 9.86393 5.4375 9.87793V9.87891L9.05078 10.2344L6.87012 13.2119C6.77817 13.3372 6.7342 13.4915 6.74609 13.6465C6.75505 13.7629 6.79531 13.8741 6.86133 13.9688L6.93555 14.0566C7.17687 14.2979 7.57649 14.3161 7.83789 14.0752L7.83887 14.0762L12.999 9.44629L13 9.44531C13.4891 9.00071 13.2238 8.18168 12.5557 8.12109H12.5566L8.94238 7.76465L11.124 4.78809L11.123 4.78711C11.3183 4.5243 11.2828 4.16754 11.0586 3.94336Z" fill="url(#paint0_linear_227_20)" stroke="url(#paint1_linear_227_20)" stroke-width="0.5"/>
<defs>
<linearGradient id="paint0_linear_227_20" x1="9.00101" y1="0" x2="9.00101" y2="18" gradientUnits="userSpaceOnUse">
<stop stop-color="#4394FF"/>
<stop offset="0.501175" stop-color="#006AF5"/>
<stop offset="1" stop-color="#004299"/>
</linearGradient>
<linearGradient id="paint1_linear_227_20" x1="14.5" y1="9" x2="10.5" y2="19.5" gradientUnits="userSpaceOnUse">
<stop stop-color="#4394FF"/>
<stop offset="0.501175" stop-color="#006AF5"/>
<stop offset="1" stop-color="#004299"/>
</linearGradient>
</defs>
</svg>
