<svg width="17" height="17" viewBox="0 0 17 17" fill="none" xmlns="http://www.w3.org/2000/svg">
<path fill-rule="evenodd" clip-rule="evenodd" d="M0.5 8.5C0.5 4.0816 4.0816 0.5 8.5 0.5C12.9184 0.5 16.5 4.0816 16.5 8.5C16.5 12.9184 12.9184 16.5 8.5 16.5C4.0816 16.5 0.5 12.9184 0.5 8.5ZM8.5 2.1C6.80261 2.1 5.17475 2.77428 3.97452 3.97452C2.77428 5.17475 2.1 6.80261 2.1 8.5C2.1 10.1974 2.77428 11.8253 3.97452 13.0255C5.17475 14.2257 6.80261 14.9 8.5 14.9C10.1974 14.9 11.8253 14.2257 13.0255 13.0255C14.2257 11.8253 14.9 10.1974 14.9 8.5C14.9 6.80261 14.2257 5.17475 13.0255 3.97452C11.8253 2.77428 10.1974 2.1 8.5 2.1Z" fill="black"/>
<path fill-rule="evenodd" clip-rule="evenodd" d="M9.29995 4.49995C9.29995 4.28778 9.21567 4.0843 9.06564 3.93427C8.91561 3.78424 8.71212 3.69995 8.49995 3.69995C8.28778 3.69995 8.0843 3.78424 7.93427 3.93427C7.78424 4.0843 7.69995 4.28778 7.69995 4.49995V7.69995H4.49995C4.28778 7.69995 4.0843 7.78424 3.93427 7.93427C3.78424 8.0843 3.69995 8.28778 3.69995 8.49995C3.69995 8.71212 3.78424 8.91561 3.93427 9.06564C4.0843 9.21567 4.28778 9.29995 4.49995 9.29995H7.69995V12.5C7.69995 12.7121 7.78424 12.9156 7.93427 13.0656C8.0843 13.2157 8.28778 13.3 8.49995 13.3C8.71212 13.3 8.91561 13.2157 9.06564 13.0656C9.21567 12.9156 9.29995 12.7121 9.29995 12.5V9.29995H12.5C12.7121 9.29995 12.9156 9.21567 13.0656 9.06564C13.2157 8.91561 13.3 8.71212 13.3 8.49995C13.3 8.28778 13.2157 8.0843 13.0656 7.93427C12.9156 7.78424 12.7121 7.69995 12.5 7.69995H9.29995V4.49995Z" fill="black"/>
</svg>
