<svg width="15" height="15" viewBox="0 0 15 15" fill="none" xmlns="http://www.w3.org/2000/svg">
<path d="M7.62305 0.924805C9.39945 0.924817 11.1033 1.63061 12.3594 2.88672C13.6155 4.14283 14.3213 5.84665 14.3213 7.62305C14.3213 9.39945 13.6155 11.1033 12.3594 12.3594C11.1033 13.6155 9.39945 14.3213 7.62305 14.3213C5.84665 14.3213 4.14283 13.6155 2.88672 12.3594C1.63061 11.1033 0.924817 9.39945 0.924805 7.62305C0.924805 5.84663 1.6306 4.14284 2.88672 2.88672C4.14284 1.6306 5.84663 0.924805 7.62305 0.924805ZM7.62305 2.02539C6.13837 2.02539 4.71487 2.61521 3.66504 3.66504C2.61521 4.71487 2.02539 6.13837 2.02539 7.62305C2.0254 9.10771 2.61522 10.5312 3.66504 11.5811C4.71486 12.6309 6.13839 13.2207 7.62305 13.2207C9.10771 13.2207 10.5312 12.6309 11.5811 11.5811C12.6309 10.5312 13.2207 9.10771 13.2207 7.62305C13.2207 6.13839 12.6309 4.71486 11.5811 3.66504C10.5312 2.61522 9.10771 2.0254 7.62305 2.02539ZM7.62305 4.04785C7.77553 4.04786 7.92147 4.10897 8.0293 4.2168C8.1371 4.32463 8.19824 4.47057 8.19824 4.62305V7.38477L10.0303 9.21582L10.1016 9.30371C10.1642 9.39761 10.1982 9.5085 10.1982 9.62305L10.1875 9.73535C10.1654 9.84617 10.1113 9.9492 10.0303 10.0303C9.92233 10.1382 9.7757 10.1982 9.62305 10.1982C9.4704 10.1982 9.32377 10.1382 9.21582 10.0303L7.21582 8.03027C7.16246 7.97678 7.12061 7.91263 7.0918 7.84277C7.06306 7.77303 7.04774 7.69848 7.04785 7.62305V4.62305C7.04785 4.47055 7.10896 4.32463 7.2168 4.2168C7.32463 4.10896 7.47055 4.04785 7.62305 4.04785Z" fill="black" stroke="black" stroke-width="0.15"/>
</svg>
