<svg width="15" height="14" viewBox="0 0 15 14" fill="none" xmlns="http://www.w3.org/2000/svg">
<path d="M6.2419 0.00925814C6.33906 0.0247124 6.43223 0.0591965 6.51608 0.110739C6.59993 0.162282 6.67282 0.229873 6.73058 0.309649C6.78834 0.389424 6.82984 0.47982 6.8527 0.57567C6.87557 0.67152 6.87935 0.770943 6.86383 0.868258L6.44355 3.49926H10.4168L10.876 0.631258C10.914 0.441198 11.024 0.273271 11.183 0.16269C11.3419 0.0521083 11.5374 0.00746192 11.7285 0.0381123C11.9196 0.0687626 12.0914 0.172329 12.2079 0.327095C12.3244 0.48186 12.3766 0.675804 12.3534 0.868258L11.9342 3.49926H14.1104C14.309 3.49926 14.4995 3.57828 14.6399 3.71893C14.7803 3.85958 14.8592 4.05035 14.8592 4.24926C14.8592 4.44817 14.7803 4.63894 14.6399 4.77959C14.4995 4.92024 14.309 4.99926 14.1104 4.99926H11.6946L11.0557 8.99926H13.6113C13.8099 8.99926 14.0003 9.07828 14.1407 9.21893C14.2811 9.35958 14.36 9.55035 14.36 9.74926C14.36 9.94817 14.2811 10.1389 14.1407 10.2796C14.0003 10.4202 13.8099 10.4993 13.6113 10.4993H10.8161L10.3569 13.3683C10.3188 13.5583 10.2088 13.7262 10.0499 13.8368C9.89094 13.9474 9.69544 13.9921 9.50436 13.9614C9.31328 13.9308 9.14147 13.8272 9.02496 13.6724C8.90845 13.5177 8.85628 13.3237 8.87939 13.1313L9.29867 10.4993H5.32546L4.86625 13.3683C4.82821 13.5583 4.71819 13.7262 4.55926 13.8368C4.40032 13.9474 4.20482 13.9921 4.01375 13.9614C3.82267 13.9308 3.65086 13.8272 3.53435 13.6724C3.41783 13.5177 3.36566 13.3237 3.38877 13.1313L3.80806 10.4993H1.63178C1.4332 10.4993 1.24276 10.4202 1.10235 10.2796C0.961939 10.1389 0.883057 9.94817 0.883057 9.74926C0.883057 9.55035 0.961939 9.35958 1.10235 9.21893C1.24276 9.07828 1.4332 8.99926 1.63178 8.99926H4.04765L4.68656 4.99926H2.13092C1.93235 4.99926 1.74191 4.92024 1.6015 4.77959C1.46109 4.63894 1.3822 4.44817 1.3822 4.24926C1.3822 4.05035 1.46109 3.85958 1.6015 3.71893C1.74191 3.57828 1.93235 3.49926 2.13092 3.49926H4.92615L5.38536 0.631258C5.41676 0.435077 5.5246 0.259395 5.68519 0.142779C5.84577 0.0261619 6.046 -0.0218589 6.2419 0.00925814ZM9.53826 8.99926L10.1772 4.99926H6.20396L5.56505 8.99926H9.53826Z" fill="black"/>
</svg>
