<svg width="18" height="18" viewBox="0 0 18 18" fill="none" xmlns="http://www.w3.org/2000/svg">
<path d="M15.4286 15.2308H14.1429V13.8462H15.4286V15.2308ZM12.8571 15.2308H11.5714V13.8462H12.8571V15.2308ZM15.4286 9.69231H14.1429V8.30769H15.4286V9.69231ZM12.8571 9.69231H11.5714V8.30769H12.8571V9.69231ZM16.0714 0C16.3393 0 16.5904 0.0540865 16.8248 0.16226C17.0592 0.270433 17.2634 0.418269 17.4375 0.605769C17.6116 0.793269 17.7489 1.01322 17.8493 1.26563C17.9498 1.51803 18 1.78846 18 2.07692V18H0V2.07692C0 1.78846 0.0502232 1.51803 0.15067 1.26563C0.251116 1.01322 0.388393 0.793269 0.5625 0.605769C0.736607 0.418269 0.940848 0.270433 1.17522 0.16226C1.4096 0.0540865 1.66071 0 1.92857 0H16.0714ZM16.7143 12.4615H1.28571V16.6154H16.7143V12.4615ZM16.7143 6.92308H1.28571V11.0769H16.7143V6.92308ZM16.7143 5.53846V2.07692C16.7143 1.88942 16.6507 1.72716 16.5234 1.59014C16.3962 1.45313 16.2455 1.38462 16.0714 1.38462H1.92857C1.75446 1.38462 1.60379 1.45313 1.47656 1.59014C1.34933 1.72716 1.28571 1.88942 1.28571 2.07692V5.53846H16.7143ZM14.1429 2.76923H15.4286V4.15385H14.1429V2.76923ZM11.5714 2.76923H12.8571V4.15385H11.5714V2.76923Z" fill="black"/>
</svg>
