<svg width="19" height="20" viewBox="0 0 19 20" fill="none" xmlns="http://www.w3.org/2000/svg">
<path d="M10.9035 17.2C10.9035 17.2 11.8035 17.2 12.7035 19C12.7035 19 15.5628 14.5 18.1035 13.6M5.05348 13.6H8.65348M5.05348 9.09998H12.2535M4.60348 2.34998C3.20308 2.39228 2.36878 2.54798 1.79098 3.12578C0.999878 3.91778 0.999878 5.19128 0.999878 7.73918V13.5946C0.999878 16.1434 0.999878 17.4169 1.79098 18.2089C2.58118 19 3.85468 19 6.39988 19H8.64988M12.6963 2.34998C14.0967 2.39228 14.9319 2.54798 15.5088 3.12578C16.3008 3.91778 16.3008 5.19128 16.3008 7.73918V11.35" stroke="black" stroke-width="1.35" stroke-linecap="round" stroke-linejoin="round"/>
<path d="M4.59998 2.575C4.59998 1.7056 5.30558 1 6.17498 1H11.125C11.5427 1 11.9433 1.16594 12.2387 1.46131C12.534 1.75668 12.7 2.15728 12.7 2.575C12.7 2.99272 12.534 3.39332 12.2387 3.68869C11.9433 3.98406 11.5427 4.15 11.125 4.15H6.17498C5.75726 4.15 5.35665 3.98406 5.06128 3.68869C4.76591 3.39332 4.59998 2.99272 4.59998 2.575Z" stroke="black" stroke-width="1.35" stroke-linecap="round" stroke-linejoin="round"/>
</svg>
