<svg width="15" height="17" viewBox="0 0 15 17" fill="none" xmlns="http://www.w3.org/2000/svg">
<path d="M5.9166 8.09064C6.01954 7.98405 6.0765 7.84129 6.07522 7.69311C6.07393 7.54493 6.01449 7.40319 5.90971 7.29841C5.80493 7.19363 5.66318 7.13419 5.51501 7.1329C5.36683 7.13161 5.22407 7.18858 5.11748 7.29152L3.42206 8.98695C3.31611 9.09293 3.25659 9.23665 3.25659 9.38651C3.25659 9.53636 3.31611 9.68008 3.42206 9.78606L5.11748 11.4815C5.22407 11.5844 5.36683 11.6414 5.51501 11.6401C5.66318 11.6388 5.80493 11.5794 5.90971 11.4746C6.01449 11.3698 6.07393 11.2281 6.07522 11.0799C6.0765 10.9317 6.01954 10.789 5.9166 10.6824L4.61677 9.38255L5.9166 8.08272V8.09064ZM8.45974 6.01091C8.60658 6.04037 8.73572 6.12691 8.8188 6.25153C8.90188 6.37614 8.93209 6.52864 8.90281 6.67552L7.77252 12.3269C7.73886 12.4695 7.65113 12.5935 7.52784 12.6727C7.40455 12.7518 7.25534 12.78 7.11166 12.7513C6.96799 12.7225 6.84109 12.6391 6.75773 12.5186C6.67437 12.3981 6.64107 12.25 6.66484 12.1054L7.79513 6.45398C7.82459 6.30714 7.91113 6.17799 8.03575 6.09492C8.16036 6.01184 8.31286 5.98163 8.45974 6.01091ZM12.1897 8.99486L10.4942 7.29944C10.3877 7.19649 10.2449 7.13953 10.0967 7.14081C9.94855 7.1421 9.8068 7.20154 9.70202 7.30632C9.59724 7.4111 9.5378 7.55285 9.53652 7.70103C9.53523 7.8492 9.59219 7.99196 9.69514 8.09855L10.995 9.39837L9.69514 10.6982C9.59219 10.8048 9.53523 10.9475 9.53652 11.0957C9.5378 11.2439 9.59724 11.3856 9.70202 11.4904C9.8068 11.5952 9.94855 11.6546 10.0967 11.6559C10.2449 11.6572 10.3877 11.6003 10.4942 11.4973L12.1897 9.80189C12.2956 9.69591 12.3551 9.55219 12.3551 9.40233C12.3551 9.25247 12.2956 9.10875 12.1897 9.00277V8.99486Z" fill="black"/>
<path fill-rule="evenodd" clip-rule="evenodd" d="M1 3.26057C1 2.01726 2.0116 1 3.26057 1H9.47713C9.62746 1 9.77101 1.05991 9.87725 1.16502L14.3984 5.68616C14.4508 5.73874 14.4924 5.80114 14.5207 5.8698C14.549 5.93845 14.5635 6.01201 14.5634 6.08628V14.5634C14.5634 15.8067 13.5518 16.824 12.3028 16.824H3.26057C2.01726 16.824 1 15.8124 1 14.5634V3.26057ZM3.26057 2.13028C2.9608 2.13028 2.67331 2.24937 2.46134 2.46134C2.24937 2.67331 2.13028 2.9608 2.13028 3.26057V14.5634C2.13028 14.8632 2.24937 15.1507 2.46134 15.3626C2.67331 15.5746 2.9608 15.6937 3.26057 15.6937H12.3028C12.6026 15.6937 12.8901 15.5746 13.1021 15.3626C13.314 15.1507 13.4331 14.8632 13.4331 14.5634V6.65142H9.47713C9.32725 6.65142 9.1835 6.59188 9.07752 6.4859C8.97153 6.37991 8.91199 6.23617 8.91199 6.08628V2.13028H3.26057ZM10.0423 2.9294L12.6306 5.51775H10.0423V2.9294Z" fill="black" stroke="black" stroke-width="0.18"/>
</svg>
