<svg width="19" height="16" viewBox="0 0 19 16" fill="none" xmlns="http://www.w3.org/2000/svg">
<path d="M3.06982 0C2.56444 0 2.12747 2.32253e-07 1.7843 0.0331037C1.44554 0.0640003 1.02843 0.137931 0.688572 0.417104C0.473703 0.594757 0.300611 0.817568 0.181605 1.06969C0.0625992 1.32182 0.000600966 1.59707 1.88458e-05 1.87586C-0.00218805 2.30621 0.189812 2.67697 0.375192 2.97049C0.560572 3.26842 0.828709 3.62152 1.14209 4.03421L4.00665 7.81022C4.28471 8.17656 4.35423 8.27367 4.40278 8.37298C4.45281 8.47597 4.48922 8.58521 4.51203 8.7007C4.53409 8.81105 4.5374 8.93463 4.5374 9.40029V12.6775C4.5374 12.9402 4.5363 13.2226 4.61465 13.4919C4.68306 13.7258 4.79671 13.9443 4.94899 14.1374C5.12554 14.3581 5.35727 14.5192 5.56913 14.6637L5.6221 14.7002L6.71451 15.4538C6.89768 15.5807 7.07975 15.7076 7.23865 15.7959C7.39755 15.8842 7.66679 16.0188 8.00003 15.9978C8.40058 15.9735 8.76141 15.7683 8.99313 15.4516C9.18293 15.1912 9.22486 14.901 9.24031 14.72C9.25576 14.5368 9.25576 14.3117 9.25576 14.0822V9.40029C9.25576 8.93463 9.26017 8.81105 9.28114 8.7007C9.3032 8.58521 9.33999 8.47597 9.39148 8.37298C9.43893 8.27367 9.50845 8.17656 9.78652 7.81022L12.6511 4.03421C12.9645 3.62152 13.2326 3.26842 13.4191 2.97049C13.6033 2.67697 13.7942 2.30621 13.7931 1.87586C13.7926 1.59707 13.7306 1.32182 13.6116 1.06969C13.4925 0.817568 13.3195 0.594757 13.1046 0.417104C12.7647 0.137931 12.3476 0.0639999 12.0089 0.0319998C11.6657 -2.13755e-07 11.2287 0 10.7233 0H3.06982ZM1.6563 1.86373C1.65987 1.80873 1.68205 1.75658 1.71919 1.71586C1.74568 1.70814 1.81078 1.69269 1.93988 1.68055C2.19588 1.65628 2.5534 1.65517 3.10954 1.65517H10.6836C11.2398 1.65517 11.5973 1.65517 11.8533 1.68055C11.9824 1.69159 12.0475 1.70814 12.074 1.71586C12.1071 1.75228 12.1324 1.80414 12.1369 1.86373C12.1055 1.94436 12.0648 2.02102 12.0155 2.09214C11.8742 2.31835 11.6513 2.61297 11.3093 3.06428L10.9131 3.58621H2.88002L2.48278 3.06428C2.14071 2.61187 1.91781 2.31835 1.77657 2.09214C1.7273 2.02102 1.68766 1.94436 1.6563 1.86373ZM14.069 5.51725C13.8495 5.51725 13.639 5.60444 13.4838 5.75964C13.3286 5.91485 13.2414 6.12535 13.2414 6.34484C13.2414 6.56433 13.3286 6.77483 13.4838 6.93003C13.639 7.08523 13.8495 7.17242 14.069 7.17242H17.3794C17.5988 7.17242 17.8093 7.08523 17.9645 6.93003C18.1197 6.77483 18.2069 6.56433 18.2069 6.34484C18.2069 6.12535 18.1197 5.91485 17.9645 5.75964C17.8093 5.60444 17.5988 5.51725 17.3794 5.51725H14.069ZM12.4138 8.27587C12.1943 8.27587 11.9838 8.36307 11.8286 8.51827C11.6734 8.67347 11.5862 8.88397 11.5862 9.10346C11.5862 9.32295 11.6734 9.53345 11.8286 9.68865C11.9838 9.84386 12.1943 9.93105 12.4138 9.93105H17.3794C17.5988 9.93105 17.8093 9.84386 17.9645 9.68865C18.1197 9.53345 18.2069 9.32295 18.2069 9.10346C18.2069 8.88397 18.1197 8.67347 17.9645 8.51827C17.8093 8.36307 17.5988 8.27587 17.3794 8.27587H12.4138ZM11.8621 11.0345C11.6426 11.0345 11.4321 11.1217 11.2769 11.2769C11.1217 11.4321 11.0345 11.6426 11.0345 11.8621C11.0345 12.0816 11.1217 12.2921 11.2769 12.4473C11.4321 12.6025 11.6426 12.6897 11.8621 12.6897H17.3794C17.5988 12.6897 17.8093 12.6025 17.9645 12.4473C18.1197 12.2921 18.2069 12.0816 18.2069 11.8621C18.2069 11.6426 18.1197 11.4321 17.9645 11.2769C17.8093 11.1217 17.5988 11.0345 17.3794 11.0345H11.8621ZM11.8621 13.7931C11.6426 13.7931 11.4321 13.8803 11.2769 14.0355C11.1217 14.1907 11.0345 14.4012 11.0345 14.6207C11.0345 14.8402 11.1217 15.0507 11.2769 15.2059C11.4321 15.3611 11.6426 15.4483 11.8621 15.4483H14.6207C14.8402 15.4483 15.0507 15.3611 15.2059 15.2059C15.3611 15.0507 15.4483 14.8402 15.4483 14.6207C15.4483 14.4012 15.3611 14.1907 15.2059 14.0355C15.0507 13.8803 14.8402 13.7931 14.6207 13.7931H11.8621Z" fill="black"/>
</svg>
