<svg width="18" height="22" viewBox="0 0 18 22" fill="none" xmlns="http://www.w3.org/2000/svg">
<path d="M1 3.70833C1 2.99004 1.28534 2.30116 1.79325 1.79325C2.30116 1.28534 2.99004 1 3.70833 1H14.9583C15.6766 1 16.3655 1.28534 16.8734 1.79325C17.3813 2.30116 17.6667 2.99004 17.6667 3.70833V13.8158C17.5661 13.8825 17.4714 13.9603 17.3825 14.0492L16.4167 15.015V3.70833C16.4167 3.32156 16.263 2.95063 15.9895 2.67714C15.716 2.40365 15.3451 2.25 14.9583 2.25H3.70833C3.32156 2.25 2.95063 2.40365 2.67714 2.67714C2.40365 2.95063 2.25 3.32156 2.25 3.70833V18.2917C2.25 19.0967 2.90333 19.75 3.70833 19.75H10.4317L11.6817 21H3.70833C2.99004 21 2.30116 20.7147 1.79325 20.2067C1.28534 19.6988 1 19.01 1 18.2917V3.70833ZM6.41667 6.625C6.41667 6.90127 6.30692 7.16622 6.11157 7.36157C5.91622 7.55692 5.65127 7.66667 5.375 7.66667C5.09873 7.66667 4.83378 7.55692 4.63843 7.36157C4.44308 7.16622 4.33333 6.90127 4.33333 6.625C4.33333 6.34873 4.44308 6.08378 4.63843 5.88843C4.83378 5.69308 5.09873 5.58333 5.375 5.58333C5.65127 5.58333 5.91622 5.69308 6.11157 5.88843C6.30692 6.08378 6.41667 6.34873 6.41667 6.625ZM5.375 12.0417C5.65127 12.0417 5.91622 11.9319 6.11157 11.7366C6.30692 11.5412 6.41667 11.2763 6.41667 11C6.41667 10.7237 6.30692 10.4588 6.11157 10.2634C5.91622 10.0681 5.65127 9.95833 5.375 9.95833C5.09873 9.95833 4.83378 10.0681 4.63843 10.2634C4.44308 10.4588 4.33333 10.7237 4.33333 11C4.33333 11.2763 4.44308 11.5412 4.63843 11.7366C4.83378 11.9319 5.09873 12.0417 5.375 12.0417ZM5.375 16.4167C5.65127 16.4167 5.91622 16.3069 6.11157 16.1116C6.30692 15.9162 6.41667 15.6513 6.41667 15.375C6.41667 15.0987 6.30692 14.8338 6.11157 14.6384C5.91622 14.4431 5.65127 14.3333 5.375 14.3333C5.09873 14.3333 4.83378 14.4431 4.63843 14.6384C4.44308 14.8338 4.33333 15.0987 4.33333 15.375C4.33333 15.6513 4.44308 15.9162 4.63843 16.1116C4.83378 16.3069 5.09873 16.4167 5.375 16.4167ZM8.29167 6C8.12591 6 7.96694 6.06585 7.84973 6.18306C7.73251 6.30027 7.66667 6.45924 7.66667 6.625C7.66667 6.79076 7.73251 6.94973 7.84973 7.06694C7.96694 7.18415 8.12591 7.25 8.29167 7.25H13.7083C13.8741 7.25 14.0331 7.18415 14.1503 7.06694C14.2675 6.94973 14.3333 6.79076 14.3333 6.625C14.3333 6.45924 14.2675 6.30027 14.1503 6.18306C14.0331 6.06585 13.8741 6 13.7083 6H8.29167ZM7.66667 11C7.66667 10.8342 7.73251 10.6753 7.84973 10.5581C7.96694 10.4408 8.12591 10.375 8.29167 10.375H13.7083C13.8741 10.375 14.0331 10.4408 14.1503 10.5581C14.2675 10.6753 14.3333 10.8342 14.3333 11C14.3333 11.1658 14.2675 11.3247 14.1503 11.4419C14.0331 11.5592 13.8741 11.625 13.7083 11.625H8.29167C8.12591 11.625 7.96694 11.5592 7.84973 11.4419C7.73251 11.3247 7.66667 11.1658 7.66667 11ZM8.29167 14.75C8.12591 14.75 7.96694 14.8158 7.84973 14.9331C7.73251 15.0503 7.66667 15.2092 7.66667 15.375C7.66667 15.5408 7.73251 15.6997 7.84973 15.8169C7.96694 15.9342 8.12591 16 8.29167 16H13.7083C13.8741 16 14.0331 15.9342 14.1503 15.8169C14.2675 15.6997 14.3333 15.5408 14.3333 15.375C14.3333 15.2092 14.2675 15.0503 14.1503 14.9331C14.0331 14.8158 13.8741 14.75 13.7083 14.75H8.29167Z" fill="#0A0A0A" stroke="#0A0A0A" stroke-width="0.0952381"/>
<path fill-rule="evenodd" clip-rule="evenodd" d="M15.5832 16.4167C15.5832 16.3062 15.5393 16.2002 15.4611 16.122C15.383 16.0439 15.277 16 15.1665 16C15.056 16 14.95 16.0439 14.8719 16.122C14.7937 16.2002 14.7498 16.3062 14.7498 16.4167V18.0833H13.0832C12.9727 18.0833 12.8667 18.1272 12.7885 18.2054C12.7104 18.2835 12.6665 18.3895 12.6665 18.5C12.6665 18.6105 12.7104 18.7165 12.7885 18.7946C12.8667 18.8728 12.9727 18.9167 13.0832 18.9167H14.7498V20.5833C14.7498 20.6938 14.7937 20.7998 14.8719 20.878C14.95 20.9561 15.056 21 15.1665 21C15.277 21 15.383 20.9561 15.4611 20.878C15.5393 20.7998 15.5832 20.6938 15.5832 20.5833V18.9167H17.2498C17.3603 18.9167 17.4663 18.8728 17.5445 18.7946C17.6226 18.7165 17.6665 18.6105 17.6665 18.5C17.6665 18.3895 17.6226 18.2835 17.5445 18.2054C17.4663 18.1272 17.3603 18.0833 17.2498 18.0833H15.5832V16.4167Z" fill="#0A0A0A" stroke="#0A0A0A" stroke-width="0.0952381"/>
</svg>
